<?xml version="1.0" standalone="no"?>
<!DOCTYPE svg PUBLIC "-//W3C//DTD SVG 20010904//EN"
 "http://www.w3.org/TR/2001/REC-SVG-20010904/DTD/svg10.dtd">
<svg version="1.0" xmlns="http://www.w3.org/2000/svg"
 width="500.000000pt" height="500.000000pt" viewBox="0 0 500.000000 500.000000"
 preserveAspectRatio="xMidYMid meet">

<g transform="translate(0.000000,500.000000) scale(0.100000,-0.100000)"
fill="#000000" stroke="none">
<path d="M1 3543 c1 -931 5 -1440 11 -1408 18 101 62 225 145 410 47 104 162
365 256 580 149 343 172 402 188 490 37 205 152 363 322 444 97 46 160 61 265
61 146 0 283 -54 391 -155 106 -99 159 -197 185 -340 9 -48 16 -62 36 -72 36
-18 1333 -19 1347 0 5 6 24 57 42 112 46 139 85 209 161 286 174 176 444 219
678 108 90 -43 199 -149 247 -240 43 -82 51 -106 71 -219 12 -71 45 -153 194
-490 343 -778 376 -860 400 -1012 18 -110 8 -312 -20 -408 -63 -221 -243 -466
-441 -600 -164 -112 -331 -163 -534 -164 -194 0 -347 35 -517 119 -289 143
-507 457 -543 781 -3 32 -8 69 -11 81 l-4 23 -404 0 -403 0 -7 -71 c-19 -210
-87 -375 -226 -550 -220 -278 -541 -416 -885 -380 -374 39 -665 233 -824 549
-39 78 -98 250 -110 323 -5 34 -9 -286 -10 -873 l-1 -928 2500 0 2500 0 0
2500 0 2500 -2500 0 -2500 0 1 -1457z"/>
<path d="M854 2651 c-321 -87 -544 -374 -544 -701 0 -310 200 -589 489 -684
282 -93 536 -34 742 174 71 71 94 103 133 181 63 128 80 200 80 334 0 87 -4
125 -23 185 -75 242 -239 414 -473 496 -102 36 -299 43 -404 15z m824 -560
c28 -90 23 -246 -12 -345 -32 -93 -62 -147 -117 -210 -51 -58 -157 -129 -245
-163 -62 -24 -83 -27 -196 -27 -78 -1 -131 3 -138 10 -7 7 1 24 31 57 52 60
61 65 151 77 153 22 278 112 346 249 36 73 37 78 42 216 l5 141 40 48 39 48
18 -22 c10 -12 26 -48 36 -79z"/>
<path d="M3741 2650 c-211 -56 -382 -194 -475 -383 -103 -211 -103 -421 1
-637 39 -81 59 -107 137 -185 150 -149 313 -219 516 -219 199 -1 348 62 496
209 148 146 212 286 221 480 6 141 -11 227 -73 354 -40 81 -60 109 -138 186
-104 104 -204 162 -332 195 -102 26 -252 26 -353 0z m809 -558 c25 -79 27
-222 5 -307 -52 -203 -227 -376 -435 -430 -70 -18 -251 -18 -269 0 -13 13 51
90 93 112 17 9 64 22 104 29 104 19 173 53 240 121 100 102 134 200 130 374
l-3 108 45 46 c41 42 46 44 58 28 7 -10 22 -46 32 -81z"/>
<path d="M2353 2593 c-404 -3 -433 -4 -433 -21 0 -55 78 -259 107 -279 14 -11
102 -13 440 -11 410 3 422 4 450 24 29 22 63 97 89 199 8 33 17 68 20 78 5 16
-5 17 -118 15 -68 -2 -318 -4 -555 -5z"/>
</g>
</svg>
